<?xml version="1.0" encoding="utf-8"?>
<!-- Generator: Adobe Illustrator 24.1.2, SVG Export Plug-In . SVG Version: 6.00 Build 0)  -->
<svg version="1.1" id="圖層_1" xmlns="http://www.w3.org/2000/svg" xmlns:xlink="http://www.w3.org/1999/xlink" x="0px" y="0px"
	 viewBox="0 0 180 180" style="enable-background:new 0 0 180 180;" xml:space="preserve">
<style type="text/css">
	.st0{fill-rule:evenodd;clip-rule:evenodd;fill:#515151;}
</style>
<path class="st0" d="M175.7,148.5L117,89.8l58.4-58.3c5.9-6,5.9-15.6,0-21.6L170,4.5c-6-5.9-15.6-5.9-21.6,0L90,62.8L31.6,4.5
	c-6-6-15.7-6-21.6,0L4.6,9.9c-6,6-6,15.6,0,21.6L63,89.8L4.3,148.5c-5.8,5.8-5.7,15.3,0.1,21c0.1,0.1,0.1,0.1,0.2,0.2l5.4,5.4
	c6.1,6.1,15.5,6.1,21.3,0.4L90,116.8l58.7,58.7c5.8,5.8,15.1,5.8,21.3-0.4l5.4-5.4C181.5,163.6,181.5,154.3,175.7,148.5z"/>
</svg>
