<?xml version="1.0" encoding="utf-8"?>
<!-- Generator: Adobe Illustrator 24.1.2, SVG Export Plug-In . SVG Version: 6.00 Build 0)  -->
<svg version="1.1" id="圖層_1" xmlns="http://www.w3.org/2000/svg" xmlns:xlink="http://www.w3.org/1999/xlink" x="0px" y="0px"
	 viewBox="0 0 180 180" style="enable-background:new 0 0 180 180;" xml:space="preserve">
<style type="text/css">
	.st0{fill:#515151;}
</style>
<path class="st0" d="M158.9,100.3L93,42.1c-1.7-1.5-4.3-1.5-6,0l-65.9,58.3c-0.5,0.4-0.8,1-0.8,1.7v68.5c0,1.2,1,2.3,2.3,2.3h46.4
	c1.2,0,2.3-1,2.3-2.3v-43.8c0-5,4-9,9-9h19.6c5,0,9,4,9,9v43.8c0,1.2,1,2.3,2.3,2.3h46.4c1.2,0,2.3-1,2.3-2.3V102
	C159.7,101.4,159.4,100.8,158.9,100.3z"/>
<path class="st0" d="M177.1,77.8l-75.2-66.1c-6.8-6-17-6-23.9,0L2.9,77.8c-3.5,3.1-3.9,8.5-0.8,12.1c0.1,0.1,0.2,0.3,0.4,0.4l0,0
	c3.2,3.2,8.3,3.4,11.7,0.4L84,29.1c3.4-3,8.5-3,11.9,0l69.8,61.5c3.5,3.1,8.9,2.8,12.1-0.8C181,86.3,180.6,80.9,177.1,77.8z"/>
</svg>
